<svg id="visual" viewBox="0 0 960 540" width="960" height="540" xmlns="http://www.w3.org/2000/svg" xmlns:xlink="http://www.w3.org/1999/xlink" version="1.1"><rect x="0" y="0" width="960" height="540" fill="#0c131e"></rect><path d="M0 349L137 341L274 353L411 379L549 390L686 318L823 345L960 264L960 541L823 541L686 541L549 541L411 541L274 541L137 541L0 541Z" fill="#102c65"></path><path d="M0 372L137 427L274 419L411 322L549 420L686 389L823 411L960 345L960 541L823 541L686 541L549 541L411 541L274 541L137 541L0 541Z" fill="#043486"></path><path d="M0 349L137 400L274 383L411 366L549 402L686 376L823 445L960 433L960 541L823 541L686 541L549 541L411 541L274 541L137 541L0 541Z" fill="#003ba8"></path><path d="M0 446L137 469L274 437L411 458L549 459L686 434L823 455L960 459L960 541L823 541L686 541L549 541L411 541L274 541L137 541L0 541Z" fill="#0b40ca"></path><path d="M0 470L137 450L274 470L411 471L549 467L686 505L823 458L960 451L960 541L823 541L686 541L549 541L411 541L274 541L137 541L0 541Z" fill="#2644eb"></path></svg>